# xmcd CD database file
#
# Track frame offsets:
#	150
#	15005
#	31087
#	45490
#	49907
#	57507
#	67865
#	78625
#	85157
#	95090
#	116750
#	125450
#	143632
#	157110
#	163977
#	172290
#	179262
#	190270
#	197457
#	209122
#
# Disc length: 3079 seconds
#
# Revision: 1
# Processed by: cddbd v1.5.2PL0 Copyright (c) Steve Scherf et al.
# Submitted via: CDex 1.51
#
DISCID=1b0c0514
DTITLE=Gurdjieff and De Hartmann - Cantos E Ritmos Do Oriente (Piano E Flauta)
DYEAR=2000
DGENRE=New Age
TTITLE0=Sem Título No. 40 (Dolce)
TTITLE1=Sem Título No. 10 (Lento, Quasi Recitativo)
TTITLE2=Sem Título No. 11 (Andante Com Moto)
TTITLE3=Dança Circular Grega
TTITLE4=Canto Armênio (Andantino)
TTITLE5=Canto Dos Açores (Andante Com Moto)
TTITLE6=Canto Das Pescadoras (Andantino)
TTITLE7=Melodia Hindu (Allegro Ma Non Troppo)
TTITLE8=Melodia Afegã (Allegretto)
TTITLE9=Hino Do Grande Tempo No. 1 (Lento)
TTITLE10=Ritual De Uma Ordem Sufi No. 7 (Marcia Alerte Alla Brava)
TTITLE11=Buscadores Da Verdade No. 19 (Lento, Religioso)
TTITLE12=Ritual De Uma Ordem Sufi No. 1 (Moderato Pesante)
TTITLE13=Dança Dos Pastores Curdos (Allegro Ma Non Troppo)
TTITLE14=Melodia Curda Para Duas Flautas (Moderato Com Moto)
TTITLE15=Música Para Gaita De Fole (Andantino)
TTITLE16=Melodia Armênia (Allegretto Grazioso)
TTITLE17=Canto Dos Molokans (Com Moto)
TTITLE18=Melodia Curda (Allegretto)
TTITLE19=Lamento Das Mulheres Assírias (Andante Funebre)
EXTD=YEAR: 2000
EXTT0=
EXTT1=
EXTT2=
EXTT3=
EXTT4=
EXTT5=
EXTT6=
EXTT7=
EXTT8=
EXTT9=
EXTT10=
EXTT11=
EXTT12=
EXTT13=
EXTT14=
EXTT15=
EXTT16=
EXTT17=
EXTT18=
EXTT19=
PLAYORDER=
